<svg xmlns="http://www.w3.org/2000/svg" version="1.1" viewBox="-5.0 -10.0 110.0 135.0">
 <path d="m9.4297 83.379h-7.6914v-66.223h7.6914zm0-66.223v-7.6914h80.953v7.6914zm80.953 0h7.6914v66.223h-7.6914v-7.6914h-7.6914v-7.6914h7.6914zm0 66.223v7.6914h-80.953v-7.6914zm-7.6914-15.383h-7.6914v-7.6914h7.6914zm-59.152-21.559h-2.8672v-13.473h2.8672v-2.707h13.078v2.707h2.8672v13.473h-2.8672v2.6328h-13.078zm36.074 6.1602v-7.6914h7.6914v7.6914zm-7.6914 7.6914v-7.6914h7.6914v7.6914zm-7.6914 7.6914v-7.6914h7.6914v7.6914zm-7.6914 7.6914v7.6914h-7.6914v-7.6914zm30.77-23.078h7.6914v7.6914h-7.6914zm-30.77 23.078v-7.6914h7.6914v7.6914z" fill-rule="evenodd"/>
</svg>